<?xml version="1.0" encoding="UTF-8"?>
<svg width="142px" height="142px" viewBox="0 0 142 142" version="1.1" xmlns="http://www.w3.org/2000/svg" xmlns:xlink="http://www.w3.org/1999/xlink">
    <title>默认头像</title>
    <defs>
        <circle id="path-1" cx="65" cy="65" r="65"></circle>
        <filter x="-8.1%" y="-5.8%" width="116.2%" height="116.2%" filterUnits="objectBoundingBox" id="filter-2">
            <feOffset dx="0" dy="3" in="SourceAlpha" result="shadowOffsetOuter1"></feOffset>
            <feGaussianBlur stdDeviation="3" in="shadowOffsetOuter1" result="shadowBlurOuter1"></feGaussianBlur>
            <feColorMatrix values="0 0 0 0 0.332880435   0 0 0 0 0.332880435   0 0 0 0 0.332880435  0 0 0 0.602136145 0" type="matrix" in="shadowBlurOuter1"></feColorMatrix>
        </filter>
        <circle id="path-3" cx="65.5" cy="65.5" r="62.5"></circle>
    </defs>
    <g id="页面-1" stroke="none" stroke-width="1" fill="none" fill-rule="evenodd">
        <g id="规范文档" transform="translate(-704.000000, -7449.000000)">
            <g id="默认头像" transform="translate(710.000000, 7452.000000)">
                <g id="蒙版">
                    <use fill="black" fill-opacity="1" filter="url(#filter-2)" xlink:href="#path-1"></use>
                    <use fill="#F3F3F3" fill-rule="evenodd" xlink:href="#path-1"></use>
                </g>
                <mask id="mask-4" fill="white">
                    <use xlink:href="#path-3"></use>
                </mask>
                <use id="蒙版" fill="#FFFFFF" xlink:href="#path-3"></use>
                <g id="编组-5" mask="url(#mask-4)">
                    <g transform="translate(16.195642, 58.285960)">
                        <polygon id="Fill-1" fill="#050101" points="10.8043583 2.98163494 7.16456929 2.98163494 7.16456929 13.71404 4.43768803 13.71404 4.43768803 2.98163494 0.804358289 2.98163494 0.804358289 0.71404 10.8043583 0.71404"></polygon>
                        <path d="M21.8043583,13.71404 L19.030193,13.71404 L19.030193,8.7114847 C19.030193,7.36196781 18.4978684,6.68617128 17.4287174,6.68617128 C16.8975182,6.68617128 16.4563528,6.87510364 16.107472,7.25089219 C15.760842,7.62460456 15.587527,8.11146873 15.587527,8.7114847 L15.587527,13.71404 L12.8043583,13.71404 L12.8043583,0.71404 L15.587527,0.71404 L15.587527,6.24913542 L15.6235405,6.24913542 C16.3494377,5.22765495 17.3308057,4.71691471 18.5676445,4.71691471 C20.7250786,4.71691471 21.8043583,5.91798474 21.8043583,8.32116289 L21.8043583,13.71404 Z" id="Fill-2" fill="#050101"></path>
                        <path d="M29.219622,7.75664115 C29.219622,6.33209477 28.6449868,5.61869457 27.494594,5.61869457 C27.0176018,5.61869457 26.5978487,5.81141406 26.2308454,6.20474213 C25.8649643,6.59468916 25.6360081,7.11198883 25.545099,7.75664115 L29.219622,7.75664115 Z M31.8043583,9.49787861 L25.5540777,9.49787861 C25.6517208,10.9731406 26.5372427,11.7135892 28.2140104,11.7135892 C29.2622707,11.7135892 30.1870743,11.4532488 30.9895435,10.9382032 L30.9895435,12.9826076 C30.1253459,13.4706049 28.9906658,13.71404 27.5877477,13.71404 C26.0782079,13.71404 24.9008791,13.2857745 24.0613729,12.4292434 C23.2241114,11.5738394 22.8043583,10.380331 22.8043583,8.85097227 C22.8043583,7.32837562 23.2510474,6.09091366 24.145548,5.13858638 C25.0389262,4.18738611 26.1601383,3.71404 27.5103067,3.71404 C28.8548633,3.71404 29.9098577,4.12201926 30.6674335,4.94023182 C31.4238869,5.75844437 31.8043583,6.8843319 31.8043583,8.31676738 L31.8043583,9.49787861 Z" id="Fill-4" fill="#050101"></path>
                        <path d="M35.7903432,7.22889229 C35.7903432,8.4531456 36.103,9.45143187 36.7260643,10.2279946 C37.3525026,11.0045574 38.2083725,11.3928388 39.2981726,11.3928388 C40.4104661,11.3928388 41.2787073,11.0215314 41.8983976,10.276795 C42.5158385,9.53311948 42.8273707,8.53483321 42.8273707,7.27769268 C42.8273707,5.96750826 42.5248358,4.93315213 41.9242649,4.17568518 C41.3214445,3.41291384 40.471198,3.03311948 39.3757745,3.03311948 C38.2634811,3.03311948 37.3873672,3.4245835 36.7496823,4.20220713 C36.109748,4.98089164 35.7903432,5.99084757 35.7903432,7.22889229 M32.8043583,7.37635435 C32.8043583,5.40524287 33.4139266,3.80225609 34.6308139,2.56527225 C35.8499505,1.32934929 37.4604704,0.71404 39.4634984,0.71404 C41.3675558,0.71404 42.9004739,1.31025348 44.0622526,2.5048022 C45.2240313,3.7004118 45.8043583,5.23974589 45.8043583,7.11643922 C45.8043583,9.07588103 45.201538,10.6650764 43.993648,11.8840253 C42.7880074,13.1061569 41.2056041,13.71404 39.2475627,13.71404 C37.3367573,13.71404 35.7880939,13.1252527 34.5936999,11.9413127 C33.4004306,10.7616163 32.8043583,9.23819538 32.8043583,7.37635435" id="Fill-6" fill="#050101"></path>
                        <path d="M56.8043583,13.71404 L54.056224,13.71404 L54.056224,8.81269005 C54.056224,7.39524457 53.5054777,6.68392577 52.4017463,6.68392577 C51.8756269,6.68392577 51.4379404,6.8729185 51.0920449,7.25090397 C50.7427911,7.63096627 50.5681643,8.11175547 50.5681643,8.70365578 L50.5681643,13.71404 L47.8043583,13.71404 L47.8043583,4.93003169 L50.5681643,4.93003169 L50.5681643,6.3246319 L50.6039852,6.3246319 C51.2946568,5.25194239 52.3110747,4.71404 53.6532389,4.71404 C55.7532389,4.71404 56.8043583,5.92172432 56.8043583,8.33813138 L56.8043583,13.71404 Z" id="Fill-8" fill="#050101"></path>
                        <path d="M64.2192997,7.75664115 C64.2192997,6.33209477 63.6445928,5.61869457 62.4940565,5.61869457 C62.0170048,5.61869457 61.5971994,5.81141406 61.2301503,6.20474213 C60.8642236,6.59468916 60.6363613,7.11198883 60.5443184,7.75664115 L64.2192997,7.75664115 Z M66.8043583,9.49787861 L60.5532982,9.49787861 C60.6509534,10.9731406 61.5365858,11.7135892 63.2135626,11.7135892 C64.2641986,11.7135892 65.1879951,11.4532488 65.9894419,10.9382032 L65.9894419,12.9826076 C65.1240141,13.4706049 63.9891924,13.71404 62.5872218,13.71404 C61.0774937,13.71404 59.9000181,13.2857745 59.0604072,12.4292434 C58.2230413,11.5738394 57.8043583,10.380331 57.8043583,8.85097227 C57.8043583,7.32837562 58.2511031,6.09091366 59.1445928,5.13858638 C60.0358375,4.18738611 61.1594344,3.71404 62.5097711,3.71404 C63.855618,3.71404 64.9096214,4.12201926 65.6650467,4.94023182 C66.4249619,5.75844437 66.8043583,6.8843319 66.8043583,8.31676738 L66.8043583,9.49787861 Z" id="Fill-10" fill="#050101"></path>
                        <path d="M68.8043583,12.210037 C68.8043583,11.7731326 68.9498501,11.4140019 69.250055,11.1326447 C69.5482107,10.8547186 69.9027189,10.71404 70.3166534,10.71404 C70.7336616,10.71404 71.0871452,10.8547186 71.3760796,11.1417945 C71.6619403,11.4288703 71.8043583,11.7868574 71.8043583,12.210037 C71.8043583,12.6583785 71.6619403,13.0220842 71.3760796,13.2988665 C71.0871452,13.5767926 70.7234157,13.71404 70.2828419,13.71404 C69.8760796,13.71404 69.5277189,13.5722177 69.2377599,13.2874292 C68.9478009,13.0014971 68.8043583,12.6400789 68.8043583,12.210037" id="Fill-12" fill="#E61F1A"></path>
                        <path d="M76.6418169,9.16090126 C75.6983358,9.29501599 75.2228891,9.74920285 75.2228891,10.5223348 C75.2228891,10.8795984 75.3393682,11.1669871 75.5691498,11.385628 C75.7999903,11.6065228 76.1070717,11.7158432 76.4967474,11.7158432 C77.0336104,11.7158432 77.4709367,11.5129806 77.8182564,11.1095094 C78.1634582,10.7060382 78.3371181,10.2090248 78.3371181,9.61058007 L78.3371181,8.92873627 L76.6418169,9.16090126 Z M73.6853642,4.52323644 C74.0898646,4.28205533 74.633081,4.0859548 75.3086601,3.93718888 C75.9884748,3.78729595 76.5687527,3.71404 77.0484351,3.71404 C79.5559136,3.71404 80.8043583,5.0472982 80.8043583,7.72057668 L80.8043583,13.479621 L78.3201756,13.479621 L78.3201756,12.0933931 L78.2862908,12.0933931 C77.6774225,13.1742 76.7826508,13.71404 75.6051525,13.71404 C74.7590903,13.71404 74.0771578,13.4570807 73.5688851,12.942035 C73.0574357,12.4269894 72.8043583,11.7293674 72.8043583,10.844661 C72.8043583,9.01551639 73.8240803,7.95274168 75.8719956,7.65408283 L78.3371181,7.29907325 C78.3371181,6.18896393 77.7939016,5.63559979 76.7074688,5.63559979 C75.6390373,5.63559979 74.6309632,5.97933922 73.6853642,6.67019913 L73.6853642,4.52323644 Z" id="Fill-14" fill="#050101"></path>
                        <path d="M89.8043583,7.21078721 C89.4696659,7.02886342 89.0626978,6.9399926 88.5845658,6.9399926 C87.9629943,6.9399926 87.4670714,7.16373796 87.1001329,7.61018312 C86.7354183,8.05976491 86.553061,8.6755874 86.553061,9.45765059 L86.553061,13.71404 L83.8043583,13.71404 L83.8043583,4.86773424 L86.553061,4.86773424 L86.553061,6.5301413 L86.587531,6.5301413 C87.0412004,5.32045264 87.866256,4.71404 89.0626978,4.71404 C89.3884947,4.71404 89.6331203,4.74958833 89.8043583,4.81963944 L89.8043583,7.21078721 Z" id="Fill-16" fill="#050101"></path>
                        <path d="M96.8043583,13.3880982 C96.4179986,13.6061052 95.8311888,13.71404 95.0501606,13.71404 C93.183794,13.71404 92.2500914,12.7073609 92.2500914,10.6907966 L92.2500914,6.42149391 L90.8043583,6.42149391 L90.8043583,4.45195077 L92.2500914,4.45195077 L92.2500914,2.4663777 L94.7998577,1.71404 L94.7998577,4.45195077 L96.8043583,4.45195077 L96.8043583,6.42149391 L94.7998577,6.42149391 L94.7998577,10.2312722 C94.7998577,11.1962735 95.1706384,11.6793085 95.9121997,11.6793085 C96.1998923,11.6793085 96.4958937,11.5906096 96.8043583,11.4174864 L96.8043583,13.3880982 Z" id="Fill-18" fill="#050101"></path>
                    </g>
                </g>
            </g>
        </g>
    </g>
</svg>