<?xml version="1.0" standalone="no"?><!DOCTYPE svg PUBLIC "-//W3C//DTD SVG 1.1//EN" "http://www.w3.org/Graphics/SVG/1.1/DTD/svg11.dtd"><svg class="icon" width="200px" height="175.04px" viewBox="0 0 1170 1024" version="1.1" xmlns="http://www.w3.org/2000/svg"><path d="M878.153143 402.285714a292.571429 292.571429 0 1 0-585.142857 0 219.428571 219.428571 0 1 0 0 438.857143v73.142857a292.571429 292.571429 0 0 1-67.291429-577.389714 365.860571 365.860571 0 0 1 719.725714 0 292.717714 292.717714 0 0 1-67.291428 577.389714v-73.142857a219.428571 219.428571 0 0 0 0-438.857143z m-585.142857 438.857143h73.142857v73.142857h-73.142857v-73.142857z m512 0h73.142857v73.142857h-73.142857v-73.142857z" fill="#333333" /><path d="M616.082286 892.854857V512.219429a37.083429 37.083429 0 0 0-36.571429-36.790858c-20.187429 0-36.571429 17.042286-36.571428 36.790858v380.635428l-41.252572-41.252571a36.790857 36.790857 0 0 0-62.390857 25.892571c0 9.728 3.803429 19.017143 10.678857 25.819429l103.862857 103.936a35.84 35.84 0 0 0 25.746286 10.386285 34.377143 34.377143 0 0 0 25.6-10.386285l103.862857-103.862857a36.790857 36.790857 0 0 0-25.965714-62.464 36.132571 36.132571 0 0 0-25.746286 10.678857l-41.252571 41.252571z" fill="#333333" /></svg>