<?xml version="1.0" encoding="UTF-8"?>
<svg width="221px" height="24px" viewBox="0 0 221 24" version="1.1" xmlns="http://www.w3.org/2000/svg" xmlns:xlink="http://www.w3.org/1999/xlink">
    <title>LOGO_中英</title>
    <g id="页面-1" stroke="none" stroke-width="1" fill="none" fill-rule="evenodd">
        <g id="1_1首页" transform="translate(-358.000000, -28.000000)">
            <g id="LOGO_中英" transform="translate(358.000000, 28.000000)">
                <g id="编组-5" transform="translate(115.254465, 4.485960)">
                    <polygon id="Fill-1" fill="#050101" points="11.1766043 3.28716 7.10855615 3.28716 7.10855615 15.02676 4.06082888 15.02676 4.06082888 3.28716 -1.20792265e-13 3.28716 -1.20792265e-13 0.80676 11.1766043 0.80676"></polygon>
                    <path d="M22.451992,15.0276 L19.4860829,15.0276 L19.4860829,9.2448 C19.4860829,7.6848 18.9169652,6.9036 17.7739171,6.9036 C17.2060027,6.9036 16.7343449,7.122 16.3613503,7.5564 C15.990762,7.9884 15.8054679,8.5512 15.8054679,9.2448 L15.8054679,15.0276 L12.8299332,15.0276 L12.8299332,6.83897383e-14 L15.8054679,6.83897383e-14 L15.8054679,6.3984 L15.8439706,6.3984 C16.6200401,5.2176 17.669238,4.6272 18.9915642,4.6272 C21.298115,4.6272 22.451992,6.0156 22.451992,8.7936 L22.451992,15.0276 Z" id="Fill-2" fill="#050101"></path>
                    <path d="M31.2704278,8.93268 C31.2704278,7.41588 30.654385,6.65628 29.4210963,6.65628 C28.9097326,6.65628 28.4597326,6.86148 28.0662834,7.28028 C27.6740374,7.69548 27.4285829,8.24628 27.331123,8.93268 L31.2704278,8.93268 Z M34.0414171,10.78668 L27.3407487,10.78668 C27.4454278,12.35748 28.3947594,13.14588 30.1923529,13.14588 C31.3161497,13.14588 32.3075936,12.86868 33.1678877,12.32028 L33.1678877,14.49708 C32.2414171,15.01668 31.0249733,15.27588 29.5209626,15.27588 C27.9026471,15.27588 26.6404813,14.81988 25.7404813,13.90788 C24.8428877,12.99708 24.3928877,11.72628 24.3928877,10.09788 C24.3928877,8.47668 24.8717647,7.15908 25.8307219,6.14508 C26.7884759,5.13228 27.9904813,4.62828 29.4379412,4.62828 C30.879385,4.62828 32.0104011,5.06268 32.8225668,5.93388 C33.6335294,6.80508 34.0414171,8.00388 34.0414171,9.52908 L34.0414171,10.78668 Z" id="Fill-4" fill="#050101"></path>
                    <path d="M38.5724599,7.94004 C38.5724599,9.32484 38.9069519,10.45404 39.5735294,11.33244 C40.2437166,12.21084 41.1593583,12.65004 42.3252674,12.65004 C43.5152406,12.65004 44.4441176,12.23004 45.1070856,11.38764 C45.7676471,10.54644 46.1009358,9.41724 46.1009358,7.99524 C46.1009358,6.51324 45.7772727,5.34324 45.1347594,4.48644 C44.4898396,3.62364 43.5802139,3.19404 42.4082888,3.19404 C41.2183155,3.19404 40.281016,3.63684 39.5987968,4.51644 C38.9141711,5.39724 38.5724599,6.53964 38.5724599,7.94004 M35.3779412,8.10684 C35.3779412,5.87724 36.0300802,4.06404 37.3319519,2.66484 C38.6362299,1.26684 40.3592246,0.57084 42.502139,0.57084 C44.5391711,0.57084 46.1791444,1.24524 47.4220588,2.59644 C48.6649733,3.94884 49.2858289,5.69004 49.2858289,7.81284 C49.2858289,10.02924 48.6409091,11.82684 47.3486631,13.20564 C46.0588235,14.58804 44.3659091,15.27564 42.271123,15.27564 C40.2268717,15.27564 38.5700535,14.60964 37.292246,13.27044 C36.0156417,11.93604 35.3779412,10.21284 35.3779412,8.10684" id="Fill-6" fill="#050101"></path>
                    <path d="M61.0785963,15.0276 L58.1247193,15.0276 L58.1247193,9.3636 C58.1247193,7.7256 57.5327406,6.9036 56.346377,6.9036 C55.780869,6.9036 55.3104144,7.122 54.938623,7.5588 C54.5632219,7.998 54.3755214,8.5536 54.3755214,9.2376 L54.3755214,15.0276 L51.4047995,15.0276 L51.4047995,4.8768 L54.3755214,4.8768 L54.3755214,6.4884 L54.4140241,6.4884 C55.1564037,5.2488 56.2489171,4.6272 57.6915642,4.6272 C59.9487834,4.6272 61.0785963,6.0228 61.0785963,8.8152 L61.0785963,15.0276 Z" id="Fill-8" fill="#050101"></path>
                    <path d="M69.8888503,8.93268 C69.8888503,7.41588 69.2728075,6.65628 68.0395187,6.65628 C67.5281551,6.65628 67.0781551,6.86148 66.6847059,7.28028 C66.2924599,7.69548 66.0482086,8.24628 65.9495455,8.93268 L69.8888503,8.93268 Z M72.6598396,10.78668 L65.9591711,10.78668 C66.0638503,12.35748 67.0131818,13.14588 68.8107754,13.14588 C69.9369786,13.14588 70.9272193,12.86868 71.7863102,12.32028 L71.7863102,14.49708 C70.8586364,15.01668 69.6421925,15.27588 68.139385,15.27588 C66.5210695,15.27588 65.2589037,14.81988 64.3589037,13.90788 C63.4613102,12.99708 63.0125134,11.72628 63.0125134,10.09788 C63.0125134,8.47668 63.4913904,7.15908 64.4491444,6.14508 C65.404492,5.13228 66.6089037,4.62828 68.0563636,4.62828 C69.4990107,4.62828 70.6288235,5.06268 71.4385829,5.93388 C72.2531551,6.80508 72.6598396,8.00388 72.6598396,9.52908 L72.6598396,10.78668 Z" id="Fill-10" fill="#050101"></path>
                    <path d="M74.1622861,13.69692 C74.1622861,13.23852 74.3331417,12.86172 74.6856818,12.56652 C75.0358155,12.27492 75.4521257,12.12732 75.9382219,12.12732 C76.4279278,12.12732 76.8430348,12.27492 77.1823396,12.57612 C77.5180348,12.87732 77.6852807,13.25292 77.6852807,13.69692 C77.6852807,14.16732 77.5180348,14.54892 77.1823396,14.83932 C76.8430348,15.13092 76.4158957,15.27492 75.898516,15.27492 C75.4208422,15.27492 75.0117513,15.12612 74.6712433,14.82732 C74.3307353,14.52732 74.1622861,14.14812 74.1622861,13.69692" id="Fill-12" fill="#E61F1A"></path>
                    <path d="M83.5858155,10.428 C82.5137567,10.5708 81.973516,11.0544 81.973516,11.8776 C81.973516,12.258 82.105869,12.564 82.3669652,12.7968 C82.6292647,13.032 82.9781952,13.1484 83.4209759,13.1484 C84.0310027,13.1484 84.5279278,12.9324 84.9225802,12.5028 C85.3148262,12.0732 85.5121524,11.544 85.5121524,10.9068 L85.5121524,10.1808 L83.5858155,10.428 Z M80.2264572,5.49 C80.6860829,5.2332 81.3033289,5.0244 82.0709759,4.866 C82.8434358,4.7064 83.5027941,4.6284 84.0478476,4.6284 C86.8970455,4.6284 88.3156283,6.048 88.3156283,8.8944 L88.3156283,15.0264 L85.4929011,15.0264 L85.4929011,13.5504 L85.4543984,13.5504 C84.7625535,14.7012 83.7458422,15.276 82.4078743,15.276 C81.4465107,15.276 80.6716444,15.0024 80.0941043,14.454 C79.5129545,13.9056 79.2253877,13.1628 79.2253877,12.2208 C79.2253877,10.2732 80.3840775,9.1416 82.7110829,8.8236 L85.5121524,8.4456 C85.5121524,7.2636 84.8949064,6.6744 83.6604144,6.6744 C82.446377,6.6744 81.3009225,7.0404 80.2264572,7.776 L80.2264572,5.49 Z" id="Fill-14" fill="#050101"></path>
                    <path d="M97.3593048,7.56444 C96.997139,7.35564 96.5567647,7.25364 96.039385,7.25364 C95.3667914,7.25364 94.8301604,7.51044 94.4331016,8.02284 C94.0384492,8.53884 93.841123,9.24564 93.841123,10.14324 L93.841123,15.02844 L90.8667914,15.02844 L90.8667914,4.87524 L93.841123,4.87524 L93.841123,6.78324 L93.8784225,6.78324 C94.3693316,5.39484 95.2621123,4.69884 96.5567647,4.69884 C96.9093048,4.69884 97.1740107,4.73964 97.3593048,4.82004 L97.3593048,7.56444 Z" id="Fill-16" fill="#050101"></path>
                    <path d="M105.432834,14.90916 C104.985241,15.15396 104.305428,15.27516 103.400615,15.27516 C101.238449,15.27516 100.156765,14.14476 100.156765,11.88036 L100.156765,7.08636 L98.4818984,7.08636 L98.4818984,4.87476 L100.156765,4.87476 L100.156765,2.64516 L103.110642,1.80036 L103.110642,4.87476 L105.432834,4.87476 L105.432834,7.08636 L103.110642,7.08636 L103.110642,11.36436 C103.110642,12.44796 103.540187,12.99036 104.399278,12.99036 C104.732567,12.99036 105.075481,12.89076 105.432834,12.69636 L105.432834,14.90916 Z" id="Fill-18" fill="#050101"></path>
                </g>
                <g id="编组-4" transform="translate(-0.000068, 0.000231)">
                    <path d="M14.2245197,10.0111286 C14.2245197,10.3843286 14.0115517,10.5703286 13.6373539,10.5703286 L11.2634234,10.5703286 C10.8892255,10.5703286 10.7027282,10.3843286 10.7027282,9.98472856 L10.7027282,6.73752856 C10.7027282,6.33792856 10.8892255,6.15192856 11.289894,6.15192856 L13.6914983,6.15192856 C14.0380223,6.15192856 14.2245197,6.36552856 14.2245197,6.79032856 L14.2245197,10.0111286 Z M14.2245197,15.2275286 C14.2245197,15.5995286 14.0115517,15.8119286 13.6373539,15.8119286 L11.2634234,15.8119286 C10.8892255,15.8119286 10.7027282,15.5995286 10.7027282,15.1999286 L10.7027282,11.7679286 C10.7027282,11.3947286 10.8892255,11.1823286 11.289894,11.1823286 L13.6638245,11.1823286 C14.0380223,11.1823286 14.2245197,11.3947286 14.2245197,11.8207286 L14.2245197,15.2275286 Z M14.2245197,20.6551286 C14.2245197,21.0283286 14.0115517,21.2143286 13.6373539,21.2143286 L11.2634234,21.2143286 C10.8892255,21.2143286 10.7027282,21.0283286 10.7027282,20.6287286 L10.7027282,16.9831286 C10.7027282,16.6111286 10.8892255,16.4251286 11.289894,16.4251286 L13.6638245,16.4251286 C14.0380223,16.4251286 14.2245197,16.6363286 14.2245197,17.0359286 L14.2245197,20.6551286 Z M4.03213998,14.0827286 C4.03213998,14.4823286 3.76502768,14.6683286 3.23200629,14.6683286 C2.72425228,14.6683286 2.45834319,14.4547286 2.45834319,14.0563286 L2.45834319,5.64672856 C2.45834319,5.27472856 2.64484051,5.06112856 3.04430575,5.00832856 L3.25847688,5.00832856 C3.76502768,5.00832856 4.03213998,5.22192856 4.03213998,5.64672856 L4.03213998,14.0827286 Z M21.7758566,20.8411286 C21.2945731,20.3095286 20.8421667,19.8847286 20.3620865,19.5907286 C19.8808031,19.3507286 19.4271935,19.4575286 19.0277282,19.8571286 C18.7870865,20.1235286 18.6005892,20.3887286 18.4128886,20.6551286 C18.120509,21.0283286 17.7463111,21.2143286 17.2927015,21.2143286 C16.8655624,21.2143286 16.6525945,21.0283286 16.6525945,20.6287286 L16.6525945,16.9831286 C16.6525945,16.6111286 16.8390919,16.4251286 17.2397603,16.4251286 L20.174386,16.4251286 C20.7880223,16.5043286 21.1080758,16.3975286 21.1357496,16.0519286 C20.4414983,15.1999286 19.8543325,14.6143286 19.3742523,14.2951286 C18.8664983,14.0023286 18.3864181,14.1367286 17.8798673,14.6947286 L17.5068726,15.1471286 C17.2132897,15.6259286 16.972648,15.8383286 16.7596801,15.8119286 C16.6790651,15.7591286 16.6525945,15.5731286 16.6525945,15.1735286 L16.6525945,11.7679286 C16.6525945,11.3947286 16.8390919,11.1823286 17.2397603,11.1823286 L20.2285304,11.1823286 C20.7615517,11.2615286 21.0816052,11.1823286 21.241632,10.9423286 C20.4944394,9.85152856 19.6678352,9.07992856 18.7606159,8.68152856 C18.6812041,8.68152856 18.3864181,8.97312856 17.9063378,9.53232856 L17.5333432,10.0111286 C17.2927015,10.4107286 17.0267924,10.5967286 16.7861507,10.5703286 C16.6790651,10.5703286 16.6525945,10.3567286 16.6525945,9.98472856 L16.6525945,6.73752856 C16.6525945,6.33792856 16.8390919,6.15192856 17.2397603,6.15192856 L20.7880223,6.15192856 C21.2681025,6.15192856 21.5616854,6.12672856 21.6423004,6.07272856 C21.668771,5.99232856 21.5352148,5.69952856 21.2151614,5.19432856 C20.52091,4.39632856 19.8543325,3.86472856 19.187755,3.57192856 C18.7076747,3.83712856 18.2263913,4.36992856 17.6933699,5.16792856 C17.5598138,5.35392856 17.4527282,5.46072856 17.399787,5.48712856 C17.053263,5.51352856 16.7320063,5.53992856 16.4396266,5.53992856 L11.4499207,5.53992856 C11.0757229,5.53992856 10.9686373,5.35392856 11.1563378,4.98192856 L12.1694394,2.82672856 C12.19591,2.42712856 12.4365517,2.21472856 12.8372202,2.13432856 C13.1572737,2.13432856 13.3173004,2.00112856 13.343771,1.68192856 C13.3173004,1.57632856 13.0766587,1.36272856 12.5701079,1.06992856 C11.7964448,0.75072856 11.1298673,0.53712856 10.5691721,0.43152856 C10.1155624,0.37872856 9.84845014,0.64392856 9.74136458,1.20312856 C9.23481378,4.44912856 8.27465335,7.18992856 6.94029506,9.37272856 C6.62024158,9.77232856 6.46021484,9.71832856 6.46021484,9.21312856 L6.46021484,6.20592856 C6.46021484,5.83392856 6.48668543,5.59392856 6.56730041,5.51352856 C7.42037527,5.19432856 7.44804907,4.76952856 6.62024158,4.23672856 C5.89951966,3.78432856 5.23294212,3.46512856 4.59283517,3.33192856 C4.43280843,3.33192856 4.2186373,3.49152856 3.95152501,3.83712856 C3.63147153,4.18392856 3.28494747,4.36992856 2.91195281,4.36992856 C2.56422554,4.36992856 2.24417206,4.31712856 1.92411859,4.15632856 C1.20339666,3.83712856 0.589760299,3.62472856 0.109680086,3.57192856 C0.0567389091,3.57192856 0.0302683209,3.83712856 0.0302683209,4.31712856 L0.0302683209,17.3551286 C-0.0503466524,17.8075286 0.0302683209,18.2071286 0.269706824,18.4735286 C0.937487572,18.7927286 1.57759452,18.7387286 2.1647603,18.2863286 C2.45834319,17.7823286 2.56422554,16.9831286 2.45834319,15.8383286 C2.45834319,15.4663286 2.72425228,15.2803286 3.25847688,15.2803286 C3.76502768,15.2803286 4.03213998,15.4663286 4.03213998,15.8659286 C4.00566939,16.2907286 4.03213998,16.7167286 4.08508116,17.1427286 C4.2186373,17.3827286 4.43280843,17.5411286 4.69871752,17.5951286 C5.63240736,17.6755286 6.21957313,17.3551286 6.46021484,16.6903286 L6.46021484,11.6083286 C6.27371752,11.2363286 6.64671217,10.7023286 7.6068726,10.0639286 C7.98107046,9.69192856 8.16756779,9.71832856 8.16756779,10.1179286 L8.16756779,22.1719286 C8.03401164,22.9711286 8.32759452,23.4235286 9.07478704,23.5303286 C10.1949742,23.6359286 10.7291988,23.2099286 10.7027282,22.2523286 C10.7027282,21.9859286 10.8892255,21.8263286 11.289894,21.8263286 L21.4016587,21.8263286 C21.8817389,21.8263286 22.1753218,21.7735286 22.2559368,21.6931286 C22.2559368,21.5863286 22.09591,21.3211286 21.7758566,20.8411286 L21.7758566,20.8411286 Z" id="Fill-20" fill="#060203"></path>
                    <path d="M45.1489047,9.58572856 C44.5617389,9.10692856 44.1610705,8.86692856 43.8951614,8.84052856 C43.7616052,8.86692856 43.5209635,9.13332856 43.1202951,9.61092856 C42.854386,9.93132856 42.6137443,10.2505286 42.4007763,10.5697286 C42.1878084,10.9153286 41.8665517,11.0221286 41.3864715,10.9429286 L25.9108031,10.9429286 C25.5907496,10.8625286 25.2706961,10.8361286 24.9771132,10.8361286 C24.4440919,10.7821286 24.2034501,10.9681286 24.3105357,11.3677286 C24.4176213,11.6881286 24.7100009,11.7937286 25.217755,11.7133286 L25.9914181,11.5813286 L45.7360705,11.5813286 C46.2690919,11.6881286 46.5891453,11.5813286 46.6962309,11.2609286 C46.3497068,10.7029286 45.8154822,10.1449286 45.1489047,9.58572856" id="Fill-22" fill="#060203"></path>
                    <path d="M70.8968459,10.1446886 C70.522648,10.5430886 70.1219796,10.9426886 69.6683699,11.3410886 C69.1894929,11.5810886 68.89591,11.6338886 68.8164983,11.5546886 C68.6023271,10.9690886 68.5217122,10.1446886 68.6287977,9.13308856 C68.6817389,8.65428856 68.7888245,8.36148856 68.9753218,8.28108856 C69.5889582,7.96188856 69.5889582,7.61628856 69.0029956,7.19028856 C68.0957763,6.63108856 67.4279956,6.28548856 66.9479154,6.17868856 C66.8673004,6.20628856 66.6808031,6.39228856 66.4136908,6.73788856 C66.1477817,7.13748856 65.8806694,7.32348856 65.5870865,7.32348856 C65.2935036,7.32348856 65.1599475,7.11108856 65.1599475,6.68508856 C65.2128886,6.20628856 65.3199742,5.86068856 65.4535304,5.64708856 C65.8541988,5.30148856 65.7735838,5.06148856 65.1864181,4.95588856 C64.6004555,4.82148856 64.0397603,4.74228856 63.5055357,4.68828856 C62.9989849,4.63548856 62.7583432,4.84908856 62.7318726,5.35428856 L62.7318726,6.60468856 C62.705402,7.08348856 62.4924341,7.32348856 62.1182362,7.29708856 L61.1580758,7.21788856 C60.6503218,7.21788856 60.4638245,7.37628856 60.5444394,7.72188856 C60.5973806,8.06868856 60.8909635,8.20188856 61.3975143,8.06868856 L61.9317389,8.01588856 C62.4382897,7.98828856 62.6789314,8.14788856 62.6789314,8.51988856 L62.6789314,8.91948856 C62.5995197,9.37188856 62.3324074,9.53148856 61.8787977,9.39948856 C61.4504555,9.34548856 61.211017,9.34548856 61.1580758,9.42588856 C61.1316052,9.50628856 61.3457763,9.69228856 61.8246533,10.0378886 C62.2517924,10.5166886 62.3853485,10.9426886 62.278263,11.3158886 C61.8246533,12.9658886 60.8103485,14.2954886 59.2100812,15.3070886 C59.2100812,15.3598886 59.237755,15.4138886 59.3424341,15.4390886 C60.4914983,15.3070886 61.638156,14.7478886 62.786017,13.7890886 C63.264894,13.2838886 63.5861507,13.1518886 63.6655624,13.3642886 C63.9591453,13.8958886 64.3333432,14.1886886 64.839894,14.1622886 C65.3729154,14.1886886 65.7194394,13.8430886 65.90714,13.1518886 C66.1201079,12.6190886 65.90714,12.0070886 65.3199742,11.2618886 C64.8940384,10.8634886 64.7328084,10.4902886 64.7869528,10.0906886 C64.8940384,9.61188856 64.9734501,9.15948856 65.0263913,8.68068856 C65.1070063,8.20188856 65.3199742,7.96188856 65.6664983,7.96188856 C66.0406961,7.96188856 66.2548673,8.22828856 66.2548673,8.73348856 C66.1742523,10.5694886 66.4413646,12.2998886 67.0273271,13.8958886 C67.32091,14.5882886 67.8816052,15.2002886 68.6817389,15.7858886 C69.2424341,16.1314886 69.7754555,16.1842886 70.2567389,15.9982886 C70.8427015,15.5458886 70.8968459,14.9866886 70.47091,14.2690886 C70.1761239,13.4434886 70.3361507,12.3526886 70.9233164,11.0218886 C71.3227817,10.4638886 71.3227817,10.1698886 70.8968459,10.1446886 M65.347648,15.7858886 C64.8940384,15.2794886 64.412755,14.8810886 63.9326747,14.5618886 C63.5332095,14.2162886 63.132541,14.3746886 62.7583432,15.0682886 L62.1988512,15.8122886 C61.9317389,16.1842886 61.5852148,16.3186886 61.1580758,16.1842886 L55.4753218,16.1842886 C55.1540651,16.1050886 54.8340116,16.0774886 54.5139582,16.0522886 C53.953263,16.0246886 53.7402951,16.1842886 53.82091,16.5838886 C53.9267924,16.8766886 54.2468459,16.9822886 54.7545999,16.9294886 L55.528263,16.7962886 L64.9999207,16.7962886 C65.4800009,16.7962886 65.7735838,16.7434886 65.826525,16.6114886 C65.8541988,16.5046886 65.6941721,16.2382886 65.347648,15.7858886 M69.7754555,17.7022886 C68.9488512,16.8502886 68.2558031,16.3438886 67.6951079,16.2118886 C67.6144929,16.2382886 67.3738512,16.5046886 66.9479154,17.0098886 C66.4136908,17.9686886 65.90714,18.3406886 65.4270598,18.1798886 L50.912755,18.1798886 C50.5914983,18.1006886 50.2714448,18.0742886 49.9513913,18.0478886 C49.3906961,18.0202886 49.1512576,18.1798886 49.2583432,18.5794886 C49.3642255,18.8722886 49.6578084,18.9790886 50.192033,18.9250886 L50.9380223,18.7930886 L55.4211774,18.7930886 C55.7689047,18.7930886 55.874787,19.0054886 55.7412309,19.4314886 L55.5017924,20.0962886 C55.2611507,20.5750886 54.9410972,20.8150886 54.5681025,20.7886886 C53.5537977,20.7622886 52.5671667,20.7346886 51.5781293,20.6554886 C51.0715785,20.6026886 50.8586106,20.8690886 50.912755,21.4798886 C50.9656961,21.9598886 51.0715785,22.4386886 51.2316052,22.8910886 C51.3386908,23.5294886 51.5781293,23.6626886 52.0064715,23.3434886 C52.1135571,23.1298886 52.3529956,22.9966886 52.7259902,22.9702886 C56.3283967,22.5442886 60.143771,22.0126886 64.1191721,21.3478886 C64.6004555,21.2674886 65.0540651,21.4798886 65.4535304,21.9862886 L66.0406961,22.9174886 C66.466632,23.4754886 66.9479154,23.6626886 67.4556694,23.5294886 C68.0681025,23.2630886 68.3628886,22.8646886 68.3352148,22.3054886 C68.3628886,21.6394886 67.9886908,21.0274886 67.2414983,20.4694886 C65.8541988,19.4578886 64.2791988,19.0846886 62.5718459,19.4050886 C62.4924341,19.4842886 62.4647603,19.5646886 62.4647603,19.6438886 C62.4647603,19.7230886 62.786017,19.8838886 63.4261239,20.0962886 C63.8797336,20.3890886 63.9326747,20.5486886 63.5584769,20.6026886 C61.211017,20.7346886 59.1029956,20.7886886 57.2091453,20.7886886 C56.7013913,20.8150886 56.7013913,20.6278886 57.1550009,20.2570886 L58.009279,19.5118886 C58.4364181,19.0318886 58.8635571,18.7930886 59.237755,18.7930886 L69.3495197,18.7930886 C69.8295999,18.7930886 70.1219796,18.7666886 70.2037977,18.7390886 C70.4432362,18.5266886 70.2832095,18.1798886 69.7754555,17.7022886 M70.3096801,1.86828856 C69.882541,1.38948856 69.4818726,1.01748856 69.1088779,0.75108856 C68.7346801,0.40548856 68.4675678,0.24468856 68.2558031,0.21948856 C68.1487175,0.21948856 67.909279,0.48468856 67.4809368,0.98988856 C67.2679689,1.22868856 67.0550009,1.49508856 66.8949742,1.73508856 C66.7337443,1.92108856 66.6013913,2.02788856 66.5484501,2.08068856 C65.987755,2.10828856 65.4005892,2.13348856 64.839894,2.10828856 C64.412755,2.10828856 64.3333432,1.94868856 64.5727817,1.60188856 C64.8134234,1.31028856 64.9193058,1.12308856 64.9193058,1.04388856 C64.4933699,0.72348856 63.7461774,0.53748856 62.6512576,0.48468856 C62.14591,0.43068856 61.8787977,0.64428856 61.8787977,1.14948856 L61.8787977,1.54908856 C61.8787977,1.92108856 61.6923004,2.10828856 61.291632,2.10828856 L58.4628886,2.10828856 C58.0369528,2.10828856 57.9563378,1.94868856 58.2487175,1.57548856 C58.4628886,1.28268856 58.5423004,1.07028856 58.4893592,0.98988856 C58.1163646,0.75108856 57.3691721,0.56508856 56.2477817,0.45828856 C55.7689047,0.43068856 55.528263,0.67068856 55.528263,1.20348856 L55.528263,1.54908856 C55.528263,1.92108856 55.3152951,2.10828856 54.9146266,2.10828856 L50.6985838,2.10828856 C50.3520598,2.05428856 50.0308031,2.02788856 49.7384234,2.00148856 C49.2583432,1.94868856 49.0441721,2.10828856 49.0971132,2.48028856 C49.2041988,2.82588856 49.5242523,2.96028856 50.0308031,2.87868856 L50.8056694,2.74668856 L54.9410972,2.74668856 C55.3405624,2.74668856 55.528263,2.90628856 55.528263,3.25188856 C55.447648,3.83748856 55.7689047,4.18308856 56.514894,4.31748856 C57.3691721,4.44948856 57.8227817,4.10388856 57.9298673,3.30588856 C57.9298673,2.93268856 58.1163646,2.74668856 58.5158298,2.74668856 L61.3181025,2.74668856 C61.6923004,2.74668856 61.8787977,2.93268856 61.8787977,3.30588856 C61.7981828,3.91788856 62.1182362,4.28988856 62.8654287,4.39668856 C63.9050009,4.50228856 64.3862844,4.10388856 64.3056694,3.19908856 C64.3056694,2.87868856 64.5198405,2.74668856 64.9193058,2.74668856 L69.7754555,2.74668856 C70.2290651,2.74668856 70.522648,2.72028856 70.6297336,2.66748856 C70.6826747,2.61348856 70.5755892,2.31948856 70.3096801,1.86828856 M56.0083432,11.9266886 C55.6870865,12.2194886 55.5017924,12.3526886 55.4211774,12.3526886 C55.3682362,12.3526886 55.3405624,12.2194886 55.3405624,11.9542886 C55.3405624,11.6878886 55.3682362,11.5270886 55.3947068,11.4478886 C55.6618191,11.1550886 55.874787,11.1022886 56.0612844,11.3158886 C56.2477817,11.3950886 56.2477817,11.6086886 56.0083432,11.9266886 M60.5444394,9.69228856 C60.3567389,9.55908856 60.2496533,9.42588856 60.1967122,9.29268856 C60.063156,8.65428856 59.8501881,8.65428856 59.5566052,9.26628856 C59.3701079,9.55908856 59.1306694,9.71868856 58.8900277,9.69228856 C58.1957763,9.74508856 57.7156961,9.69228856 57.4221132,9.55908856 C57.3691721,9.47868856 57.3414983,9.34548856 57.3414983,9.07908856 C57.3414983,8.84028856 57.5291988,8.73348856 57.9298673,8.73348856 L58.3305357,8.73348856 C58.8094127,8.73348856 59.1029956,8.68068856 59.237755,8.62668856 C59.3171667,8.57388856 59.237755,8.28108856 58.99591,7.74948856 C58.6229154,7.21788856 58.2763913,6.87108856 57.9298673,6.68508856 C57.8227817,6.65868856 57.5833432,6.89748856 57.1550009,7.40388856 C56.7290651,7.85628856 56.3283967,8.09508856 56.0083432,8.09508856 C55.6618191,8.09508856 55.5017924,7.85628856 55.5017924,7.34988856 C55.5017924,6.87108856 55.6870865,6.63108856 56.087755,6.63108856 C56.9155624,6.65868856 57.7156961,6.63108856 58.4893592,6.57828856 C58.7564715,6.33828856 58.6229154,5.93988856 58.1428352,5.38068856 C57.5833432,4.84908856 57.0479154,4.84908856 56.6219796,5.35428856 C56.2225143,5.80668856 55.9289314,6.01908856 55.7689047,6.01908856 C55.5812041,6.01908856 55.5017924,5.88588856 55.5017924,5.64708856 C55.447648,5.35428856 55.528263,5.16828856 55.7941721,5.06148856 C56.0348138,4.95588856 56.1154287,4.82148856 56.0348138,4.63548856 C56.0348138,4.47588856 55.874787,4.37028856 55.5547336,4.28988856 C55.1540651,4.21068856 54.5681025,4.13028856 53.7932362,4.07628856 C53.2866854,4.04988856 53.0460437,4.28988856 53.0460437,4.79508856 L53.0460437,5.43348856 C53.0460437,5.83308856 52.8595464,6.01908856 52.4600812,6.01908856 L51.1521935,5.88588856 C50.6179689,5.86068856 50.4050009,6.04668856 50.4844127,6.41988856 C50.5650277,6.71148856 50.8586106,6.81828856 51.3663646,6.73788856 C51.7393592,6.68508856 52.1135571,6.65868856 52.4865517,6.63108856 C52.8595464,6.63108856 53.0460437,6.89748856 53.0460437,7.40388856 C53.0460437,7.85628856 52.8595464,8.09508856 52.4600812,8.09508856 C51.391632,8.14788856 50.5120865,8.09508856 49.8178352,7.96188856 C49.337755,7.93548856 49.1512576,8.12148856 49.2306694,8.46828856 C49.3112844,8.78628856 49.6048673,8.91948856 50.0849475,8.84028856 L50.5914983,8.78628856 C51.0451079,8.73348856 51.259279,8.91948856 51.2063378,9.34548856 C51.1245197,9.69228856 50.9921667,9.98388856 50.8056694,10.2238886 C50.2979154,10.9162886 49.5242523,11.4214886 48.5111507,11.7682886 C48.4305357,11.8738886 48.697648,11.9266886 49.3112844,11.9002886 C50.2173004,11.8474886 51.178664,11.5546886 52.1664983,10.9954886 C52.7789314,10.5694886 53.2072737,10.0642886 53.4996533,9.42588856 C53.6332095,8.97228856 53.953263,8.73348856 54.461017,8.73348856 C54.9410972,8.73348856 55.1805357,8.97228856 55.1805357,9.50628856 C55.1805357,10.0114886 55.2082095,10.3042886 55.2334769,10.4362886 C55.2876213,10.5166886 55.0746533,10.5166886 54.6210437,10.4362886 C54.3274608,10.3570886 54.0074074,10.3294886 53.7138245,10.3294886 C53.232541,10.3294886 52.9931025,10.5694886 52.9931025,11.0746886 L52.9931025,11.7934886 C52.9931025,12.1666886 52.8066052,12.3526886 52.4059368,12.3526886 L51.2316052,12.2470886 C50.6985838,12.2194886 50.4591453,12.3790886 50.5385571,12.7246886 C50.6179689,13.0186886 50.8850812,13.1518886 51.3663646,13.1242886 L52.2723806,12.9910886 C52.753664,12.9910886 52.9931025,13.2310886 52.9931025,13.7098886 C52.9931025,14.1358886 52.7789314,14.3482886 52.3253218,14.3482886 L50.5120865,14.3218886 C50.0055357,14.3218886 49.8178352,14.5882886 49.8984501,15.1726886 C49.9778619,15.4930886 50.0849475,15.8122886 50.2173004,16.1314886 C50.4591453,16.6366886 50.6179689,16.8766886 50.6985838,16.9030886 C50.83214,16.9030886 50.9380223,16.7962886 51.0186373,16.5838886 C51.0992523,16.5046886 51.2857496,16.4242886 51.6058031,16.2910886 C54.6475143,15.7066886 57.0755892,15.0406886 58.9164983,14.2954886 C58.9694394,14.2162886 58.99591,14.1358886 58.9694394,14.0566886 C58.9164983,14.0026886 58.6770598,13.9750886 58.1957763,14.0026886 L56.0348138,14.2162886 C55.5812041,14.2162886 55.3405624,14.0290886 55.3405624,13.6042886 C55.3405624,13.2046886 55.528263,12.9910886 55.9289314,12.9910886 L57.4221132,12.9910886 C57.9021935,12.9910886 58.1693058,12.9658886 58.2487175,12.9382886 C58.3834769,12.8314886 58.4099475,12.6454886 58.2487175,12.3790886 C57.9563378,11.9002886 58.009279,11.6614886 58.3834769,11.6614886 C59.1559368,11.6338886 59.7960437,11.5546886 60.3037977,11.3950886 C60.8909635,11.1550886 61.1039314,10.8094886 60.9968459,10.3570886 C60.9715785,10.0642886 60.8103485,9.85188856 60.5444394,9.69228856" id="Fill-24" fill="#060203"></path>
                    <path d="M95.6308432,7.93572856 C95.3914047,7.61532856 95.1230892,7.29732856 94.8042389,6.97692856 C94.1906025,6.20652856 93.6828485,6.28572856 93.3086507,7.21692856 L92.5626614,8.30892856 C90.8541052,8.41452856 89.6533031,8.38812856 88.960255,8.28132856 C88.4801747,8.22852856 88.2672068,8.38812856 88.320148,8.70732856 C88.3730892,9.02652856 88.6402015,9.15972856 89.1202817,9.13332856 C89.7603886,9.05412856 90.2681427,9.00012856 90.6676079,9.00012856 C91.0682763,9.00012856 91.2547737,9.21252856 91.2547737,9.61092856 L91.2547737,19.6981286 C91.3618592,20.1757286 91.2283031,20.4961286 90.8541052,20.6557286 C90.4281694,20.7097286 89.7880624,20.6821286 88.9337844,20.5753286 C88.5066453,20.4421286 88.239533,20.4685286 88.1865919,20.7097286 C88.2130624,20.8417286 88.4801747,21.0013286 88.9879287,21.2665286 C89.6003619,21.6133286 89.9745598,22.0921286 90.1610571,22.7053286 C90.1887309,23.1829286 90.2681427,23.4757286 90.3752282,23.5561286 C91.0682763,23.5561286 91.7360571,23.4229286 92.4014314,23.1577286 C92.855041,23.0233286 93.2557095,22.6777286 93.5504956,22.0921286 C93.6828485,21.7189286 93.7369929,21.3733286 93.7899341,21.0553286 L93.7899341,9.58572856 C93.7899341,9.18612856 94.002902,9.00012856 94.4023673,9.00012856 C94.9101213,9.02652856 95.4166721,9.00012856 95.9244261,8.97252856 C96.137394,8.70732856 96.056779,8.36052856 95.6308432,7.93572856" id="Fill-26" fill="#060203"></path>
                    <path d="M90.5618459,3.22596856 L91.4690651,3.11916856 L94.6166587,3.11916856 C95.0979421,3.11916856 95.391525,3.09276856 95.4444662,3.06516856 C95.6574341,2.82636856 95.5503485,2.48076856 95.1232095,2.02836856 C94.883771,1.68156856 94.5901881,1.38996856 94.2701346,1.09716856 C93.6564983,0.35076856 93.1764181,0.43116856 92.829894,1.36236856 C92.5892523,1.73556856 92.3486106,2.08116856 92.0550277,2.42676856 C91.6555624,2.50596856 91.0948673,2.48076856 90.4282897,2.37396856 C89.8940651,2.34756856 89.6810972,2.50596856 89.760509,2.85276856 C89.8146533,3.14556856 90.0817656,3.27876856 90.5618459,3.22596856" id="Fill-28" fill="#060203"></path>
                    <path d="M78.2876747,2.77368856 C78.554787,2.26728856 78.7942255,2.05368856 79.0613378,2.13408856 C79.4343325,2.05368856 79.5678886,1.92168856 79.4620063,1.70808856 C79.3284501,1.44288856 79.0878084,1.22928856 78.7412844,1.14888856 C78.1805892,0.88368856 77.619894,0.67128856 77.1133432,0.56448856 C76.6597336,0.43128856 76.3396801,0.61728856 76.2325945,1.12368856 C75.8054555,2.90568856 74.9523806,4.60848856 73.6709635,6.28608856 C73.3244394,6.73848856 73.1920865,7.00368856 73.2450277,7.11048856 C75.058263,6.33888856 76.7403485,4.90128856 78.2876747,2.77368856" id="Fill-30" fill="#060203"></path>
                    <path d="M89.9743191,18.6595286 C91.0680357,18.0751286 91.1486507,17.3827286 90.1608164,16.5571286 C89.8949074,16.4251286 89.7336774,16.1587286 89.6807362,15.7051286 C89.6277951,15.2275286 89.5483833,14.9611286 89.4412977,14.9071286 C89.3606828,14.9347286 89.2271266,15.2539286 89.0947737,15.8911286 C88.8276614,16.3711286 88.6134902,16.6363286 88.4269929,16.6903286 C88.0527951,16.6639286 87.9192389,16.3975286 88.0527951,15.8911286 L88.0527951,11.1823286 C88.0527951,10.7827286 88.1598806,10.5163286 88.3993191,10.3039286 C88.7458432,10.0375286 88.6941052,9.82512856 88.1875544,9.61152856 C87.5727148,9.47952856 86.9867523,9.39912856 86.4260571,9.37272856 C85.9724475,9.37272856 85.7318058,9.61152856 85.7318058,10.1443286 L85.7318058,17.2759286 C85.9724475,18.3403286 86.6125544,18.8983286 87.6521266,18.9259286 C88.4799341,19.0051286 89.2535972,18.8983286 89.9743191,18.6595286" id="Fill-32" fill="#060203"></path>
                    <path d="M79.5684902,7.50924856 C79.8079287,7.50924856 79.9426881,7.40364856 79.9944261,7.16364856 C79.9150143,6.87084856 79.7008432,6.68484856 79.3290517,6.57924856 C78.7936239,6.36564856 78.2606025,6.17964856 77.7275812,6.02004856 C77.2210304,5.88564856 76.9274475,6.07284856 76.8203619,6.57924856 C76.2331961,8.92044856 75.1382763,11.0492486 73.538009,13.0184486 C73.0579287,13.7096486 73.0579287,13.9496486 73.538009,13.7096486 C73.9122068,13.4708486 74.2852015,13.2044486 74.6593993,12.9116486 C75.1659501,12.4856486 75.4318592,12.4592486 75.4318592,12.8324486 L75.4318592,22.3328486 C75.3801213,22.8368486 75.4318592,23.2100486 75.6460304,23.3960486 C76.526779,23.8220486 77.2210304,23.8220486 77.7275812,23.3432486 C77.9405491,23.0780486 78.021164,22.7312486 77.9405491,22.2524486 L77.9405491,9.95844856 C77.9405491,9.61164856 78.0741052,9.23964856 78.3676881,8.86764856 L78.8754421,8.17524856 C79.2219662,7.72284856 79.4614047,7.50924856 79.5684902,7.50924856" id="Fill-34" fill="#060203"></path>
                    <path d="M89.1741854,5.67408856 C88.8529287,5.03568856 88.4534635,4.50288856 87.9733833,4.10328856 C87.4656293,3.43848856 87.0396935,3.43848856 86.6654956,4.10328856 L86.1589448,4.87488856 C85.9183031,5.24808856 85.6259234,5.43408856 85.3046667,5.43408856 C85.0375544,5.43408856 84.8787309,5.22168856 84.8787309,4.82208856 C84.8787309,4.10328856 84.8787309,3.35808856 84.9316721,2.64048856 L85.2517255,2.45328856 C85.571779,2.32008856 85.7053352,2.16048856 85.6511908,1.97448856 C85.5441052,1.62888856 85.2517255,1.44288856 84.7439715,1.41528856 C84.1844796,1.28328856 83.6237844,1.20288856 83.0895598,1.14888856 C82.6106828,1.12368856 82.370041,1.36248856 82.370041,1.86768856 L82.370041,4.84968856 C82.370041,5.22168856 82.1570731,5.43408856 81.7564047,5.43408856 L80.2090785,5.32728856 C79.7277951,5.30088856 79.5160304,5.43408856 79.5412977,5.75328856 C79.6219127,6.07248856 79.8878218,6.20568856 80.3691052,6.17928856 C80.8491854,6.09888856 81.3292656,6.04728856 81.7828753,6.07248856 C82.1823405,6.07248856 82.370041,6.25848856 82.370041,6.65808856 L82.370041,8.84088856 C82.370041,9.21288856 82.1823405,9.34608856 81.7828753,9.24048856 C81.3822068,9.15888856 81.0356828,9.10608856 80.6626881,9.07968856 C80.1284635,9.07968856 79.8348806,9.34608856 79.8348806,9.85128856 C79.8348806,13.7896886 79.5412977,16.9828886 78.9806025,19.4044886 C78.8747202,19.8844886 78.8747202,20.1232886 78.9276614,20.1496886 C79.3548004,19.8028886 79.6483833,19.4848886 79.80841,19.1392886 C80.7420999,17.8072886 81.3292656,16.2388886 81.6228485,14.4016886 C81.8634902,13.0456886 81.9958432,11.7136886 81.9958432,10.4368886 C82.0499876,10.3300886 82.1570731,10.2496886 82.2364849,10.1980886 C82.3170999,10.1704886 82.370041,10.3564886 82.370041,10.7296886 L82.370041,21.8524886 C82.2629555,22.9972886 82.7707095,23.4760886 83.8908967,23.3440886 C84.3709769,23.2900886 84.7187041,23.0236886 84.8787309,22.4644886 L84.8787309,6.63168856 C84.8787309,6.25848856 85.0904956,6.07248856 85.491164,6.07248856 L88.2404956,6.07248856 C88.7999876,6.17928856 89.120041,6.07248856 89.1741854,5.67408856" id="Fill-36" fill="#060203"></path>
                    <path d="M86.4293058,1.91232856 C86.4293058,1.55472856 86.5652683,1.26192856 86.8371935,1.03392856 C87.1091186,0.80352856 87.4351881,0.68952856 87.8117924,0.68952856 C88.1944127,0.68952856 88.5168726,0.80592856 88.7791721,1.03992856 C89.0426747,1.27392856 89.1738245,1.56432856 89.1738245,1.91232856 C89.1738245,2.27952856 89.0426747,2.57592856 88.7791721,2.80152856 C88.5168726,3.02832856 88.184787,3.14112856 87.7841186,3.14112856 C87.4099207,3.14112856 87.0922737,3.02472856 86.8263646,2.79072856 C86.5616587,2.55792856 86.4293058,2.26512856 86.4293058,1.91232856" id="Fill-38" fill="#E61F1A"></path>
                    <path d="M14.4518058,3.68772856 C14.5083566,3.21492856 14.9306828,1.57332856 14.9679822,1.16892856 C15.0052817,0.76452856 14.9403084,-0.06227144 15.9088913,0.00372855997 C16.8798806,0.06972856 17.9254689,0.34812856 18.0794796,0.41772856 C18.232287,0.48732856 18.5198539,0.94212856 17.7209234,1.26372856 C17.5356293,1.36332856 16.6416453,2.68572856 16.195255,3.28452856 C15.7488646,3.88212856 14.3543459,4.49532856 14.4518058,3.68772856" id="Fill-40" fill="#050101"></path>
                </g>
                <polygon id="Fill-42" fill="#F1F1F1" points="104.447861 23.36604 106.861497 23.36604 106.861497 1.14804 104.447861 1.14804"></polygon>
            </g>
        </g>
    </g>
</svg>